<svg width="22" height="12" viewBox="0 0 22 12" fill="none" xmlns="http://www.w3.org/2000/svg">
  <style>
    @keyframes twinkle {
      0%,
      100% {
        opacity: 1;
      }

      50% {
        opacity: 0.2;
      }
    }

    #star1 {
      animation: twinkle 2s infinite;
    }

    #star2 {
      animation: twinkle 2s infinite;
      animation-delay: 0.5s;
    }

    #star3 {
      animation: twinkle 2s infinite;
      animation-delay: 1s;
    }
  </style>
  <path id="line" d="M2 10H20C20.55 10 21 10.45 21 11C21 11.55 20.55 12 20 12H2C1.45 12 1 11.55 1 11C1 10.45 1.45 10 2 10Z" fill="#FF6464" />
  <path id="star1" d="M1.5 5.57C1.86 5.78 2.32 5.65 2.53 5.29L3 4.47L3.48 5.3C3.69 5.66 4.15 5.78 4.51 5.58C4.87 5.37 4.99 4.92 4.79 4.56L4.3 3.72H5.25C5.66 3.72 6 3.38 6 2.97C6 2.56 5.66 2.22 5.25 2.22H4.3L4.77 1.4C4.98 1.04 4.86 0.579998 4.5 0.369998C4.32574 0.272995 4.12045 0.247981 3.92799 0.300299C3.73554 0.352617 3.57117 0.47812 3.47 0.649998L3 1.47L2.53 0.649998C2.42883 0.47812 2.26446 0.352617 2.07201 0.300299C1.87955 0.247981 1.67426 0.272995 1.5 0.369998C1.14 0.579998 1.02 1.04 1.23 1.4L1.7 2.22H0.75C0.34 2.22 0 2.56 0 2.97C0 3.38 0.34 3.72 0.75 3.72H1.7L1.22 4.55C1.02 4.91 1.14 5.37 1.5 5.57Z" fill="#FF6464" />
  <path id="star2" d="M9.5 5.57C9.86 5.78 10.32 5.65 10.53 5.29L11 4.47L11.48 5.3C11.69 5.66 12.15 5.78 12.51 5.58C12.87 5.37 12.99 4.92 12.79 4.56L12.31 3.73H13.26C13.67 3.73 14.01 3.39 14.01 2.98C14.01 2.57 13.67 2.23 13.26 2.23H12.3L12.77 1.41C12.8689 1.23717 12.896 1.03243 12.8455 0.83981C12.795 0.647192 12.671 0.482084 12.5 0.379998C12.4153 0.33074 12.3217 0.29865 12.2246 0.285561C12.1275 0.272472 12.0288 0.27864 11.9341 0.303713C11.8394 0.328786 11.7505 0.372272 11.6726 0.431688C11.5947 0.481104 11.5292 0.555287 11.48 0.639998L11 1.47L10.53 0.649998C10.4811 0.564892 10.4159 0.490321 10.338 0.430603C10.2602 0.370886 10.1712 0.327207 10.0764 0.302096C9.98149 0.276985 9.88259 0.270941 9.78537 0.284313C9.68816 0.297685 9.59456 0.330207 9.51 0.379998C9.15 0.589998 9.03 1.05 9.24 1.41L9.71 2.23H8.75C8.65198 2.22867 8.55468 2.24684 8.46374 2.28343C8.3728 2.32003 8.29004 2.37432 8.22026 2.44317C8.15049 2.51202 8.09508 2.59404 8.05727 2.68448C8.01946 2.77492 7.99999 2.87197 8 2.97C8 3.38 8.34 3.72 8.75 3.72H9.7L9.22 4.55C9.02 4.91 9.14 5.37 9.5 5.57Z" fill="#FF6464" />
  <path id="star3" d="M22 2.97C22 2.56 21.66 2.22 21.25 2.22H20.3L20.77 1.4C20.8689 1.22717 20.896 1.02243 20.8455 0.82981C20.795 0.637192 20.671 0.472084 20.5 0.369998C20.4153 0.32074 20.3217 0.288651 20.2246 0.275562C20.1275 0.262473 20.0288 0.26864 19.9341 0.293713C19.8394 0.318786 19.7505 0.362272 19.6726 0.421688C19.5947 0.481104 19.5292 0.555286 19.48 0.639998L19 1.47L18.53 0.649998C18.4811 0.564892 18.4159 0.490321 18.338 0.430603C18.2602 0.370886 18.1712 0.327207 18.0764 0.302096C17.9815 0.276985 17.8826 0.270941 17.7854 0.284313C17.6882 0.297685 17.5946 0.330207 17.51 0.379998C17.15 0.589998 17.03 1.05 17.24 1.41L17.71 2.23H16.76C16.6613 2.22774 16.5631 2.24519 16.4711 2.28132C16.3792 2.31746 16.2954 2.37156 16.2247 2.44046C16.1539 2.50937 16.0976 2.59169 16.059 2.68261C16.0204 2.77353 16.0004 2.87123 16 2.97C16 3.38 16.34 3.72 16.75 3.72H17.7L17.22 4.55C17.1703 4.63509 17.1382 4.72924 17.1254 4.82692C17.1126 4.92461 17.1194 5.02387 17.1455 5.11887C17.1716 5.21388 17.2164 5.30272 17.2773 5.38019C17.3381 5.45765 17.4139 5.52219 17.5 5.57C17.86 5.78 18.32 5.65 18.53 5.29L19 4.47L19.48 5.3C19.69 5.66 20.15 5.78 20.51 5.58C20.87 5.37 20.99 4.92 20.79 4.56L20.31 3.73H21.26C21.66 3.72 22 3.38 22 2.97Z" fill="#FF6464" />
</svg>